<svg width="22" height="19" viewBox="0 0 22 19" fill="none" xmlns="http://www.w3.org/2000/svg">
<path d="M21.6382 7.6393H20.7581V7.59987H10.9253V11.3998H17.0998C16.199 13.6118 13.7785 15.1997 10.9253 15.1997C7.30522 15.1997 4.37013 12.6476 4.37013 9.49984C4.37013 6.35207 7.30522 3.79994 10.9253 3.79994C12.5964 3.79994 14.1166 4.34808 15.2741 5.24344L18.3644 2.55641C16.4131 0.975158 13.8031 0 10.9253 0C4.89181 0 0 4.25355 0 9.49984C0 14.7461 4.89181 18.9997 10.9253 18.9997C16.9588 18.9997 21.8506 14.7461 21.8506 9.49984C21.8506 8.86287 21.7753 8.24111 21.6382 7.6393Z" fill="#FFC107"/>
<path d="M1.25781 5.07814L4.84733 7.36712C5.81859 5.27621 8.17081 3.79994 10.9234 3.79994C12.5945 3.79994 14.1147 4.34808 15.2723 5.24344L18.3625 2.55641C16.4112 0.975158 13.8012 0 10.9234 0C6.72703 0 3.0878 2.06004 1.25781 5.07814Z" fill="#FF3D00"/>
<path d="M10.9255 19C13.7475 19 16.3117 18.0609 18.2504 16.5338L14.869 14.0458C13.7352 14.7956 12.3499 15.201 10.9255 15.2001C8.08381 15.2001 5.67095 13.6245 4.76197 11.4258L1.19922 13.8126C3.00736 16.8891 6.67936 19 10.9255 19Z" fill="#4CAF50"/>
<path d="M21.6386 7.63903H20.7586V7.59961H10.9258V11.3995H17.1002C16.6693 12.4523 15.8932 13.3723 14.8676 14.0457L14.8693 14.0448L18.2507 16.5328C18.0114 16.7218 21.8511 14.2495 21.8511 9.49958C21.8511 8.86261 21.7757 8.24085 21.6386 7.63903Z" fill="#1976D2"/>
</svg>
