<svg width="121" height="121" viewBox="0 0 121 121" fill="none" xmlns="http://www.w3.org/2000/svg">
<g filter="url(#filter0_dii_17050_45019)">
<rect x="9.17578" y="9" width="93.15" height="93.15" rx="22.6581" fill="url(#paint0_linear_17050_45019)"/>
</g>
<g filter="url(#filter1_di_17050_45019)">
<path d="M27.416 55.5746C27.416 59.8956 29.1325 64.0396 32.1879 67.095C35.2433 70.1504 39.3874 71.8669 43.7084 71.8669C48.0294 71.8669 52.1734 70.1504 55.2288 67.095C58.2842 64.0396 60.0007 59.8956 60.0007 55.5746V41.2656" stroke="white" stroke-width="3.18764" stroke-linecap="round" stroke-linejoin="round"/>
<path d="M27.416 55.5752C27.416 63.09 30.4013 70.297 35.715 75.6107C41.0288 80.9245 48.2358 83.9097 55.7505 83.9097C63.2653 83.9097 70.4723 80.9245 75.7861 75.6107C81.0998 70.297 84.0851 63.09 84.0851 55.5752" stroke="white" stroke-width="3.18764" stroke-linecap="round" stroke-linejoin="round"/>
<path d="M84.0847 55.5746C84.0847 51.2536 82.3682 47.1096 79.3128 44.0541C76.2574 40.9987 72.1133 39.2822 67.7923 39.2822C63.4713 39.2822 59.3273 40.9987 56.2719 44.0541C53.2165 47.1096 51.5 51.2536 51.5 55.5746V69.8835" stroke="white" stroke-width="3.18764" stroke-linecap="round" stroke-linejoin="round"/>
<path d="M84.0851 55.5748C84.0851 48.06 81.0998 40.853 75.7861 35.5392C70.4723 30.2255 63.2653 27.2402 55.7505 27.2402C48.2358 27.2402 41.0288 30.2255 35.715 35.5392C30.4013 40.853 27.416 48.06 27.416 55.5748" stroke="white" stroke-width="3.18764" stroke-linecap="round" stroke-linejoin="round"/>
</g>
<defs>
<filter id="filter0_dii_17050_45019" x="0.53578" y="0.359999" width="120.15" height="120.15" filterUnits="userSpaceOnUse" color-interpolation-filters="sRGB">
<feFlood flood-opacity="0" result="BackgroundImageFix"/>
<feColorMatrix in="SourceAlpha" type="matrix" values="0 0 0 0 0 0 0 0 0 0 0 0 0 0 0 0 0 0 127 0" result="hardAlpha"/>
<feOffset dx="4.86" dy="4.86"/>
<feGaussianBlur stdDeviation="6.75"/>
<feComposite in2="hardAlpha" operator="out"/>
<feColorMatrix type="matrix" values="0 0 0 0 0.0862745 0 0 0 0 0.101804 0 0 0 0 0.156863 0 0 0 0.4 0"/>
<feBlend mode="normal" in2="BackgroundImageFix" result="effect1_dropShadow_17050_45019"/>
<feBlend mode="normal" in="SourceGraphic" in2="effect1_dropShadow_17050_45019" result="shape"/>
<feColorMatrix in="SourceAlpha" type="matrix" values="0 0 0 0 0 0 0 0 0 0 0 0 0 0 0 0 0 0 127 0" result="hardAlpha"/>
<feOffset dx="0.377635" dy="0.377635"/>
<feGaussianBlur stdDeviation="0.125878"/>
<feComposite in2="hardAlpha" operator="arithmetic" k2="-1" k3="1"/>
<feColorMatrix type="matrix" values="0 0 0 0 0.158333 0 0 0 0 0.513117 0 0 0 0 1 0 0 0 1 0"/>
<feBlend mode="normal" in2="shape" result="effect2_innerShadow_17050_45019"/>
<feColorMatrix in="SourceAlpha" type="matrix" values="0 0 0 0 0 0 0 0 0 0 0 0 0 0 0 0 0 0 127 0" result="hardAlpha"/>
<feOffset dx="-0.377635" dy="-0.377635"/>
<feGaussianBlur stdDeviation="0.125878"/>
<feComposite in2="hardAlpha" operator="arithmetic" k2="-1" k3="1"/>
<feColorMatrix type="matrix" values="0 0 0 0 0 0 0 0 0 0 0 0 0 0 0.433333 0 0 0 1 0"/>
<feBlend mode="normal" in2="effect2_innerShadow_17050_45019" result="effect3_innerShadow_17050_45019"/>
</filter>
<filter id="filter1_di_17050_45019" x="19.0723" y="18.8965" width="73.3574" height="73.3574" filterUnits="userSpaceOnUse" color-interpolation-filters="sRGB">
<feFlood flood-opacity="0" result="BackgroundImageFix"/>
<feColorMatrix in="SourceAlpha" type="matrix" values="0 0 0 0 0 0 0 0 0 0 0 0 0 0 0 0 0 0 127 0" result="hardAlpha"/>
<feOffset/>
<feGaussianBlur stdDeviation="3.375"/>
<feComposite in2="hardAlpha" operator="out"/>
<feColorMatrix type="matrix" values="0 0 0 0 0 0 0 0 0 0 0 0 0 0 0 0 0 0 0.3 0"/>
<feBlend mode="normal" in2="BackgroundImageFix" result="effect1_dropShadow_17050_45019"/>
<feBlend mode="normal" in="SourceGraphic" in2="effect1_dropShadow_17050_45019" result="shape"/>
<feColorMatrix in="SourceAlpha" type="matrix" values="0 0 0 0 0 0 0 0 0 0 0 0 0 0 0 0 0 0 127 0" result="hardAlpha"/>
<feOffset dx="0.324" dy="0.675"/>
<feGaussianBlur stdDeviation="0.675"/>
<feComposite in2="hardAlpha" operator="arithmetic" k2="-1" k3="1"/>
<feColorMatrix type="matrix" values="0 0 0 0 0 0 0 0 0 0 0 0 0 0 0 0 0 0 0.45 0"/>
<feBlend mode="normal" in2="shape" result="effect2_innerShadow_17050_45019"/>
</filter>
<linearGradient id="paint0_linear_17050_45019" x1="9.17578" y1="9" x2="102.326" y2="102.15" gradientUnits="userSpaceOnUse">
<stop stop-color="#006BFF"/>
<stop offset="0.692708" stop-color="#0000C5"/>
</linearGradient>
</defs>
</svg>
